<svg xmlns="http://www.w3.org/2000/svg" width="16" height="13.867" viewBox="0 0 16 13.867">
  <path id="camera" d="M8,5.6A2.4,2.4,0,0,1,10.4,8,2.4,2.4,0,0,1,8,10.4,2.4,2.4,0,0,1,5.6,8,2.4,2.4,0,0,1,8,5.6Zm5.867-3.467a2.055,2.055,0,0,1,1.508.625A2.055,2.055,0,0,1,16,4.267v7.467a2.134,2.134,0,0,1-2.133,2.133H2.133a2.055,2.055,0,0,1-1.508-.625A2.055,2.055,0,0,1,0,11.733V4.267A2.055,2.055,0,0,1,.625,2.758a2.055,2.055,0,0,1,1.508-.625H4L4.425,1A1.548,1.548,0,0,1,5,.3,1.483,1.483,0,0,1,5.867,0h4.267A1.485,1.485,0,0,1,11,.3a1.546,1.546,0,0,1,.579.7L12,2.133ZM8,11.733a3.6,3.6,0,0,0,2.638-1.1A3.6,3.6,0,0,0,11.733,8a3.6,3.6,0,0,0-1.1-2.638A3.6,3.6,0,0,0,8,4.267a3.594,3.594,0,0,0-2.637,1.1A3.6,3.6,0,0,0,4.267,8a3.593,3.593,0,0,0,1.1,2.638A3.6,3.6,0,0,0,8,11.733Z" fill="#0a1931"/>
</svg>
