<svg xmlns="http://www.w3.org/2000/svg" width="16" height="16" viewBox="0 0 16 16">
  <path id="uploadalt" d="M14,16H2a1.928,1.928,0,0,1-1.414-.586A1.925,1.925,0,0,1,0,14V12.5a.961.961,0,0,1,.3-.7.961.961,0,0,1,.7-.3.961.961,0,0,1,.7.3.961.961,0,0,1,.3.7V13a.987.987,0,0,0,1,1H13a.987.987,0,0,0,1-1v-.5a1,1,0,0,1,2,0V14a2,2,0,0,1-2,2ZM13.672,6H10v5a.987.987,0,0,1-1,1H7a.987.987,0,0,1-1-1V6H2.312q-.234,0-.289-.094t.133-.3L7.484.219a.717.717,0,0,1,1.031,0l5.328,5.391q.188.2.125.3t-.3.094Z" fill="#0a1931"/>
</svg>

